<?xml version="1.0" encoding="utf-8"?>
<!-- Generator: Adobe Illustrator 22.0.0, SVG Export Plug-In . SVG Version: 6.00 Build 0)  -->
<svg version="1.1" id="Layer_1" xmlns="http://www.w3.org/2000/svg" xmlns:xlink="http://www.w3.org/1999/xlink" x="0px" y="0px"
	 viewBox="0 0 1366 705.1" style="enable-background:new 0 0 1366 705.1;" xml:space="preserve">
<style type="text/css">
	.st0{fill:url(#SVGID_1_);}
</style>
<title>Bg</title>
<g id="Layer_2_1_">
	<g id="Layer_1-2">
		
			<linearGradient id="SVGID_1_" gradientUnits="userSpaceOnUse" x1="878.4343" y1="402.7267" x2="102.409" y2="-73.1736" gradientTransform="matrix(1 0 0 -1 0 708)">
			<stop  offset="0" style="stop-color:#3AC569"/>
			<stop  offset="1" style="stop-color:#7FFFB2"/>
		</linearGradient>
		<path class="st0" d="M132.5,679.1c39,0,67.3,17.3,105,21.5c35.3,4,72.6-0.9,107-6.8c58.4-10,120-23.6,176.7-9
			c26.7,6.9,51.5,20,79.8,20.3c22.7,0.2,43.7-7.9,65-13.8c57.5-15.9,120.2-16.6,178.3-2c25.8,6.6,51.5,16.2,78.7,15
			c20.6-0.9,39.7-8,59-13.4c54.4-14.8,113.5-16,168.8-3.4c19.6,4.5,38.7,10.7,59,12.2c16.7,1.2,33.4-0.8,49.9-2.9
			c38.2-4.7,73.2-9.3,106.4-11.6V333.5c0,0-118-106.5-401-106.5s-282-62-282-62H0v536C41.6,686.5,86.8,679.1,132.5,679.1z"/>
	</g>
</g>
</svg>
