<?xml version="1.0" encoding="UTF-8"?>
<svg xmlns="http://www.w3.org/2000/svg" xmlns:xlink="http://www.w3.org/1999/xlink" width="683pt" height="353pt" viewBox="0 0 683 353" version="1.1">
<defs>
<linearGradient id="linear0" gradientUnits="userSpaceOnUse" x1="876.12" y1="221.15" x2="66.52" y2="717.64" gradientTransform="matrix(0.499901,0,0,0.50061,0.0678021,0)">
<stop offset="0" style="stop-color:rgb(22.745098%,77.254902%,41.176471%);stop-opacity:1;"/>
<stop offset="1" style="stop-color:rgb(49.803922%,100%,69.803922%);stop-opacity:1;"/>
</linearGradient>
</defs>
<g id="surface1">
<path style=" stroke:none;fill-rule:nonzero;fill:url(#linear0);" d="M 66.304688 335.996094 C 85.800781 335.996094 99.929688 347.292969 118.792969 350.078125 C 136.449219 352.679688 155.09375 349.503906 172.285156 345.640625 C 201.460938 339.089844 232.296875 330.1875 260.597656 339.75 C 273.953125 344.253906 286.351562 352.816406 300.484375 353 C 311.8125 353.144531 322.34375 347.84375 332.976562 343.988281 C 361.699219 333.601562 393.066406 333.136719 422.085938 342.664062 C 434.992188 346.949219 447.804688 353.28125 461.410156 352.484375 C 471.71875 351.882812 481.238281 347.234375 490.90625 343.75 C 518.082031 334.078125 547.621094 333.296875 575.269531 341.519531 C 585.046875 344.460938 594.601562 348.53125 604.761719 349.5 C 613.097656 350.292969 621.464844 348.953125 629.722656 347.617188 C 648.820312 344.535156 666.300781 341.515625 682.90625 340.019531 L 682.90625 110.132812 C 682.90625 110.132812 623.945312 40.550781 482.472656 40.550781 C 341 40.550781 341.5 0 341.5 0 L 0.0664062 0 L 0.0664062 350.320312 C 20.867188 340.84375 43.457031 335.957031 66.304688 335.996094 Z M 66.304688 335.996094 "/>
</g>
</svg>
