<svg xmlns="http://www.w3.org/2000/svg" xmlns:xlink="http://www.w3.org/1999/xlink" viewBox="0 0 1365.95 646.15"><defs><style>.cls-1{fill:url(#linear-gradient);}</style><linearGradient id="linear-gradient" x1="876.95" y1="397.77" x2="79.36" y2="-91.36" gradientTransform="matrix(1, 0, 0, -1, 0, 590)" gradientUnits="userSpaceOnUse"><stop offset="0" stop-color="#3ac569"/><stop offset="1" stop-color="#7fffb2"/></linearGradient></defs><title>Layer 2</title><g id="Layer_2" data-name="Layer 2"><g id="Layer_1-2" data-name="Layer 1"><g id="Layer_2-2" data-name="Layer 2"><g id="Layer_1-2-2" data-name="Layer 1-2"><path class="cls-1" d="M132.5,615c39,0,67.26,20.68,105,25.78,35.32,4.76,72.61-1,107-8.12,58.37-12,120.05-28.29,176.66-10.78,26.72,8.24,51.52,23.91,79.79,24.25,22.66.27,43.73-9.44,65-16.49a297.34,297.34,0,0,1,178.25-2.43c25.82,7.84,51.45,19.43,78.67,18,20.62-1.1,39.66-9.62,59-16a295.9,295.9,0,0,1,168.76-4.08c19.56,5.38,38.67,12.83,59,14.61,16.67,1.44,33.41-1,49.93-3.45,38.2-5.64,73.17-11.17,106.39-13.91V201.59S1248,74.22,965,74.22,683,0,683,0H0V641.24A343.53,343.53,0,0,1,132.5,615Z"/></g></g></g></g></svg>