<svg xmlns="http://www.w3.org/2000/svg" xmlns:xlink="http://www.w3.org/1999/xlink" viewBox="0 0 1365.95 540.15"><defs><style>.cls-1{fill:url(#linear-gradient);}</style><linearGradient id="linear-gradient" x1="878.43" y1="237.73" x2="102.41" y2="-238.17" gradientTransform="matrix(1, 0, 0, -1, 0, 378)" gradientUnits="userSpaceOnUse"><stop offset="0" stop-color="#3ac569"/><stop offset="1" stop-color="#7fffb2"/></linearGradient></defs><title>Layer 2</title><g id="Layer_2" data-name="Layer 2"><g id="Layer_1-2" data-name="Layer 1"><g id="Layer_2-2" data-name="Layer 2"><g id="Layer_1-2-2" data-name="Layer 1-2"><path class="cls-1" d="M132.5,514.12c39,0,67.26,17.29,105,21.55,35.32,4,72.61-.88,107-6.79,58.37-10,120.05-23.65,176.66-9,26.72,6.89,51.52,20,79.79,20.27,22.66.22,43.73-7.89,65-13.79a353.41,353.41,0,0,1,178.25-2c25.82,6.56,51.45,16.25,78.67,15,20.62-.92,39.66-8,59-13.36a351.71,351.71,0,0,1,168.76-3.41c19.56,4.49,38.67,10.72,59,12.21,16.67,1.21,33.41-.84,49.93-2.88,38.2-4.72,73.17-9.34,106.39-11.63V168.52S1248,62.05,965,62.05,683,0,683,0H0V536A402.91,402.91,0,0,1,132.5,514.12Z"/></g></g></g></g></svg>